<?xml version="1.0" encoding="UTF-8" standalone="no"?>
<svg
   xmlns:dc="http://purl.org/dc/elements/1.1/"
   xmlns:cc="http://creativecommons.org/ns#"
   xmlns:rdf="http://www.w3.org/1999/02/22-rdf-syntax-ns#"
   xmlns:svg="http://www.w3.org/2000/svg"
   xmlns="http://www.w3.org/2000/svg"
   xmlns:sodipodi="http://sodipodi.sourceforge.net/DTD/sodipodi-0.dtd"
   xmlns:inkscape="http://www.inkscape.org/namespaces/inkscape"
   width="256"
   height="256"
   viewBox="0 0 256 256"
   version="1.1"
   id="svg13"
   sodipodi:docname="hof-bluegold-_CalendarWeek.svg"
   inkscape:version="0.92.3 (2405546, 2018-03-11)"
   inkscape:export-filename="/home/tony/hof/websites/docs/static/images/hof-bluegold-_CalendarWeek.png"
   inkscape:export-xdpi="96"
   inkscape:export-ydpi="96">
  <metadata
     id="metadata-hof">
    <rdf:RDF>
      <cc:Work
         rdf:about="">
        <dc:format>image/svg+xml</dc:format>
        <dc:type
           rdf:resource="http://purl.org/dc/dcmitype/StillImage" />
        <dc:title>hofstadter-logo</dc:title>
      </cc:Work>
    </rdf:RDF>
  </metadata>
  <defs
     id="defs-hof" />
  <sodipodi:namedview
     pagecolor="#ffffff"
     bordercolor="#666666"
     borderopacity="1"
     objecttolerance="10"
     gridtolerance="10"
     guidetolerance="10"
     inkscape:pageopacity="0"
     inkscape:pageshadow="2"
     inkscape:window-width="1920"
     inkscape:window-height="1016"
     id="namedview-hof"
     showgrid="true"
     inkscape:zoom="2.3850522"
     inkscape:cx="-0.20173516"
     inkscape:cy="146.62597"
     inkscape:window-x="0"
     inkscape:window-y="27"
     inkscape:window-maximized="1"
     inkscape:current-layer="svg13"
     showguides="true">
    <inkscape:grid
       type="xygrid"
       id="grid2196" />
  </sodipodi:namedview>
  <title
     id="title">hofstadter-logo</title>
  <g
     id="background"
     style="fill:none;fill-opacity:1;fill-rule:evenodd;stroke:none;stroke-width:1"
     transform="scale(5.8181818)">
    <polygon
       id="bg"
       points="44,0 0,0 0,44 44,44 "
       style="fill:#02344d;fill-opacity:1;fill-rule:nonzero" />
  </g>
  <g
     id="underscore"
     style="fill:#cba44f;fill-opacity:1;fill-rule:evenodd;stroke:none;stroke-width:1"
     transform="matrix(5.8181818,0,0,5.8181818,35.188567,28.8)">
    <polygon
       id="_"
       points="30.951965,34.05 0,34.05 1.1179039,30 32,30 "
       style="fill:#cba44f;fill-opacity:1;fill-rule:nonzero" />
  </g>
  <path
     id="path5663"
     d="M 183,54 H 168.9375 V 37.59375 c 0,-1.28906 -1.05469,-2.34375 -2.34375,-2.34375 h -4.6875 c -1.28906,0 -2.34375,1.05469 -2.34375,2.34375 V 54 h -56.25 V 37.59375 c 0,-1.28906 -1.05469,-2.34375 -2.34375,-2.34375 h -4.6875 c -1.28906,0 -2.34375,1.05469 -2.34375,2.34375 V 54 H 79.875 c -7.76367,0 -14.0625,6.29883 -14.0625,14.0625 v 103.125 c 0,7.76367 6.29883,14.0625 14.0625,14.0625 H 183 c 7.76367,0 14.0625,-6.29883 14.0625,-14.0625 V 68.0625 C 197.0625,60.29883 190.76367,54 183,54 Z m 4.6875,117.1875 c 0,2.57812 -2.10937,4.6875 -4.6875,4.6875 H 79.875 c -2.57813,0 -4.6875,-2.10938 -4.6875,-4.6875 V 91.5 h 112.5 z m 0,-89.0625 h -112.5 V 68.0625 c 0,-2.57812 2.10937,-4.6875 4.6875,-4.6875 H 183 c 2.57813,0 4.6875,2.10938 4.6875,4.6875 z M 89.25,138.375 h 84.375 c 2.57813,0 4.6875,-2.10937 4.6875,-4.6875 v -28.125 c 0,-2.57812 -2.10937,-4.6875 -4.6875,-4.6875 H 89.25 c -2.57813,0 -4.6875,2.10938 -4.6875,4.6875 v 28.125 c 0,2.57813 2.10937,4.6875 4.6875,4.6875 z m 4.6875,-28.125 h 75 V 129 h -75 z"
     inkscape:connector-curvature="0"
     style="fill:#f1ede0;fill-opacity:1;stroke-width:0.29296875" />
</svg>
