<?xml version="1.0" encoding="UTF-8" standalone="no"?>
<svg
   xmlns:dc="http://purl.org/dc/elements/1.1/"
   xmlns:cc="http://creativecommons.org/ns#"
   xmlns:rdf="http://www.w3.org/1999/02/22-rdf-syntax-ns#"
   xmlns:svg="http://www.w3.org/2000/svg"
   xmlns="http://www.w3.org/2000/svg"
   xmlns:sodipodi="http://sodipodi.sourceforge.net/DTD/sodipodi-0.dtd"
   xmlns:inkscape="http://www.inkscape.org/namespaces/inkscape"
   width="256"
   height="256"
   viewBox="0 0 256 256"
   version="1.1"
   id="svg13"
   sodipodi:docname="hof-bluegold-_Direction.svg"
   inkscape:version="0.92.3 (2405546, 2018-03-11)"
   inkscape:export-filename="/home/tony/hof/websites/site/static/images/hof-bluegold-_Direction-min.png"
   inkscape:export-xdpi="96"
   inkscape:export-ydpi="96">
  <metadata
     id="metadata-hof">
    <rdf:RDF>
      <cc:Work
         rdf:about="">
        <dc:format>image/svg+xml</dc:format>
        <dc:type
           rdf:resource="http://purl.org/dc/dcmitype/StillImage" />
        <dc:title>hofstadter-logo</dc:title>
      </cc:Work>
    </rdf:RDF>
  </metadata>
  <defs
     id="defs-hof" />
  <sodipodi:namedview
     pagecolor="#ffffff"
     bordercolor="#666666"
     borderopacity="1"
     objecttolerance="10"
     gridtolerance="10"
     guidetolerance="10"
     inkscape:pageopacity="0"
     inkscape:pageshadow="2"
     inkscape:window-width="1920"
     inkscape:window-height="1016"
     id="namedview-hof"
     showgrid="true"
     inkscape:zoom="1.6864865"
     inkscape:cx="18.536227"
     inkscape:cy="118.66806"
     inkscape:window-x="0"
     inkscape:window-y="27"
     inkscape:window-maximized="1"
     inkscape:current-layer="g830"
     showguides="true">
    <inkscape:grid
       type="xygrid"
       id="grid2196" />
  </sodipodi:namedview>
  <title
     id="title">hofstadter-logo</title>
  <g
     id="underscore"
     style="fill:#cba44f;fill-opacity:1;fill-rule:evenodd;stroke:none;stroke-width:1"
     transform="matrix(5.8181818,0,0,5.8181818,35.188567,28.8)"
     inkscape:export-xdpi="96"
     inkscape:export-ydpi="96">
    <polygon
       id="_"
       points="30.951965,34.05 0,34.05 1.1179039,30 32,30 "
       style="fill:#cba44f;fill-opacity:1;fill-rule:nonzero" />
  </g>
  <g
     id="g830"
     class="fa-group"
     transform="matrix(0.29296643,0,0,0.29296643,-21.43099,236.03844)"
     inkscape:export-xdpi="96"
     inkscape:export-ydpi="96">
    <path
       id="path826"
       d="M 784.6343,-469.10662 535.31345,-718.42747 a 35.71747,35.71747 0 0 0 -50.50326,0 l -249.32085,249.32085 a 35.71747,35.71747 0 0 0 0,50.50326 l 249.32085,249.30972 a 35.695202,35.695202 0 0 0 50.49212,0 L 784.6343,-418.60336 a 35.71747,35.71747 0 0 0 0,-50.50326 z m -112.45213,13.98415 -93.75836,86.54361 a 8.9070997,8.9070997 0 0 1 -14.91939,-6.54672 v -59.82231 h -106.8852 v 71.2568 a 8.9070997,8.9070997 0 0 1 -8.9071,8.9071 h -35.6284 a 8.9070997,8.9070997 0 0 1 -8.9071,-8.9071 v -89.071 a 35.628399,35.628399 0 0 1 35.6284,-35.6284 h 124.6994 v -59.82231 a 8.9070997,8.9070997 0 0 1 14.95279,-6.54671 l 93.75836,86.5436 a 8.9070997,8.9070997 0 0 1 0.48989,12.58128 c -0.15587,0.17814 -0.32288,0.34515 -0.50102,0.51216 z"
       class="fa-secondary"
       inkscape:connector-curvature="0"
       style="opacity:1;fill:#02344d;fill-opacity:1;stroke-width:1.11338747"
       inkscape:export-xdpi="96"
       inkscape:export-ydpi="96" />
    <path
       id="path828"
       d="m 672.20444,-455.12247 -93.75836,86.54361 a 8.9070997,8.9070997 0 0 1 -14.94166,-6.54672 v -59.82231 h -106.8852 v 71.2568 a 8.9070997,8.9070997 0 0 1 -8.9071,8.9071 h -35.6284 a 8.9070997,8.9070997 0 0 1 -8.9071,-8.9071 v -89.071 a 35.628399,35.628399 0 0 1 35.6284,-35.6284 h 124.6994 v -59.82231 a 8.9070997,8.9070997 0 0 1 14.95279,-6.54671 l 93.75836,86.5436 a 8.9070997,8.9070997 0 0 1 0.48989,12.58128 c -0.15587,0.17814 -0.32288,0.34515 -0.50102,0.51216 z"
       class="fa-primary"
       inkscape:connector-curvature="0"
       style="fill:#f1ede0;fill-opacity:1;stroke-width:1.11338747"
       inkscape:export-xdpi="96"
       inkscape:export-ydpi="96" />
  </g>
</svg>
