<?xml version="1.0" encoding="UTF-8" standalone="no"?>
<svg
   xmlns:dc="http://purl.org/dc/elements/1.1/"
   xmlns:cc="http://creativecommons.org/ns#"
   xmlns:rdf="http://www.w3.org/1999/02/22-rdf-syntax-ns#"
   xmlns:svg="http://www.w3.org/2000/svg"
   xmlns="http://www.w3.org/2000/svg"
   xmlns:sodipodi="http://sodipodi.sourceforge.net/DTD/sodipodi-0.dtd"
   xmlns:inkscape="http://www.inkscape.org/namespaces/inkscape"
   width="512"
   height="512"
   viewBox="0 0 256 256"
   version="1.1"
   id="svg13"
   sodipodi:docname="hof-bluegold-_Abacus.svg"
   inkscape:version="0.92.3 (2405546, 2018-03-11)"
   inkscape:export-filename="/home/tony/hof/websites/docs/static/images/hof-bluegold-_Abacus.png"
   inkscape:export-xdpi="96"
   inkscape:export-ydpi="96">
  <metadata
     id="metadata-hof">
    <rdf:RDF>
      <cc:Work
         rdf:about="">
        <dc:format>image/svg+xml</dc:format>
        <dc:type
           rdf:resource="http://purl.org/dc/dcmitype/StillImage" />
        <dc:title>hofstadter-logo</dc:title>
      </cc:Work>
    </rdf:RDF>
  </metadata>
  <defs
     id="defs-hof" />
  <sodipodi:namedview
     pagecolor="#ffffff"
     bordercolor="#666666"
     borderopacity="1"
     objecttolerance="10"
     gridtolerance="10"
     guidetolerance="10"
     inkscape:pageopacity="0"
     inkscape:pageshadow="2"
     inkscape:window-width="1920"
     inkscape:window-height="1016"
     id="namedview-hof"
     showgrid="true"
     inkscape:zoom="1.6864866"
     inkscape:cx="171.04812"
     inkscape:cy="262.22817"
     inkscape:window-x="0"
     inkscape:window-y="27"
     inkscape:window-maximized="1"
     inkscape:current-layer="svg13"
     showguides="true">
    <inkscape:grid
       type="xygrid"
       id="grid2196" />
  </sodipodi:namedview>
  <title
     id="title">hofstadter-logo</title>
  <g
     id="underscore"
     style="fill:#cba44f;fill-opacity:1;fill-rule:evenodd;stroke:none;stroke-width:1"
     transform="matrix(5.8181818,0,0,5.8181818,35.188567,28.8)"
     inkscape:export-xdpi="96"
     inkscape:export-ydpi="96">
    <polygon
       id="_"
       points="1.1179039,30 32,30 30.951965,34.05 0,34.05 "
       style="fill:#cba44f;fill-opacity:1;fill-rule:nonzero" />
  </g>
  <path
     id="path873"
     d="m 199.83334,47.666667 c -2.30209,0 -4.16667,1.864583 -4.16667,4.166666 V 68.5 H 179 V 64.333334 C 179,59.731767 175.26822,56 170.66666,56 h -8.33332 C 157.73177,56 154,59.731767 154,64.333334 V 68.5 H 129 V 64.333334 C 129,59.731767 125.26823,56 120.66667,56 h -8.33334 C 107.73176,56 104,59.731767 104,64.333334 V 68.5 H 95.666666 V 64.333334 C 95.666666,59.731767 91.934891,56 87.333334,56 H 79 c -4.601567,0 -8.333333,3.731767 -8.333333,8.333334 V 68.5 H 62.333333 V 51.833333 c 0,-2.302083 -1.864583,-4.166666 -4.166667,-4.166666 C 55.864583,47.666667 54,49.53125 54,51.833333 V 178.91667 C 54,180.06771 54.932291,181 56.083333,181 H 60.25 c 1.151041,0 2.083333,-0.93229 2.083333,-2.08333 v -18.75 h 8.333334 v 4.16666 c 0,4.60156 3.731766,8.33334 8.333333,8.33334 h 8.333334 c 4.601557,0 8.333332,-3.73178 8.333332,-8.33334 v -4.16666 H 104 v 4.16666 c 0,4.60156 3.73176,8.33334 8.33333,8.33334 h 8.33334 c 4.60156,0 8.33333,-3.73178 8.33333,-8.33334 v -4.16666 h 25 v 4.16666 c 0,4.60156 3.73177,8.33334 8.33334,8.33334 h 8.33332 c 4.60156,0 8.33334,-3.73178 8.33334,-8.33334 v -4.16666 h 16.66667 v 18.75 c 0,1.15104 0.93229,2.08333 2.08333,2.08333 h 4.16667 C 203.06771,181 204,180.06771 204,178.91667 V 51.833333 c 0,-2.302083 -1.86458,-4.166666 -4.16666,-4.166666 z m -37.5,16.666667 h 8.33332 V 81 h -8.33332 z m -50.00001,0 h 8.33334 V 81 h -8.33334 z m -33.33333,0 h 8.333334 V 81 H 79 Z m 8.333334,99.999996 H 79 v -16.66667 h 8.333334 z m 33.333336,0 h -8.33334 v -16.66667 h 8.33334 z m 49.99999,0 h -8.33332 v -16.66667 h 8.33332 z m 25.00001,-12.5 H 179 v -4.16667 c 0,-4.60155 -3.73178,-8.33332 -8.33334,-8.33332 h -8.33332 c -4.60157,0 -8.33334,3.73177 -8.33334,8.33332 v 4.16667 h -25 v -4.16667 c 0,-4.60155 -3.73177,-8.33332 -8.33333,-8.33332 h -8.33334 c -4.60157,0 -8.33333,3.73177 -8.33333,8.33332 v 4.16667 h -8.333334 v -4.16667 c 0,-4.60155 -3.731775,-8.33332 -8.333332,-8.33332 H 79 c -4.601567,0 -8.333333,3.73177 -8.333333,8.33332 v 4.16667 H 62.333333 V 118.5 h 8.333334 v 4.16667 C 70.666667,127.26823 74.398433,131 79,131 h 8.333334 c 4.601557,0 8.333332,-3.73177 8.333332,-8.33333 V 118.5 H 104 v 4.16667 c 0,4.60156 3.73176,8.33333 8.33333,8.33333 h 8.33334 C 125.26823,131 129,127.26823 129,122.66667 V 118.5 h 8.33333 v 4.16667 c 0,4.60156 3.73177,8.33333 8.33334,8.33333 H 154 c 4.60156,0 8.33334,-3.73177 8.33334,-8.33333 V 118.5 h 33.33333 z M 79,122.66667 V 106 h 8.333334 v 16.66667 z m 33.33333,0 V 106 h 8.33334 v 16.66667 z m 33.33334,0 V 106 H 154 v 16.66667 z m 50,-12.50001 H 162.33334 V 106 c 0,-4.60157 -3.73178,-8.333333 -8.33334,-8.333333 h -8.33333 c -4.60157,0 -8.33334,3.731763 -8.33334,8.333333 v 4.16666 H 129 V 106 c 0,-4.60157 -3.73177,-8.333333 -8.33333,-8.333333 h -8.33334 C 107.73176,97.666667 104,101.39843 104,106 v 4.16666 H 95.666666 V 106 c 0,-4.60157 -3.731775,-8.333333 -8.333332,-8.333333 H 79 c -4.601567,0 -8.333333,3.731763 -8.333333,8.333333 v 4.16666 H 62.333333 V 76.833333 h 8.333334 V 81 c 0,4.601558 3.731766,8.333333 8.333333,8.333333 h 8.333334 c 4.601557,0 8.333332,-3.731775 8.333332,-8.333333 V 76.833333 H 104 V 81 c 0,4.601558 3.73176,8.333333 8.33333,8.333333 h 8.33334 C 125.26823,89.333333 129,85.601558 129,81 v -4.166667 h 25 V 81 c 0,4.601558 3.73177,8.333333 8.33334,8.333333 h 8.33332 C 175.26822,89.333333 179,85.601558 179,81 v -4.166667 h 16.66667 z"
     inkscape:connector-curvature="0"
     style="fill:#02344d;fill-opacity:1;stroke-width:0.26041669;filter:url(#filter3981)"
     inkscape:export-xdpi="96"
     inkscape:export-ydpi="96" />
</svg>
