<?xml version="1.0" encoding="UTF-8" standalone="no"?>
<svg
   xmlns:dc="http://purl.org/dc/elements/1.1/"
   xmlns:cc="http://creativecommons.org/ns#"
   xmlns:rdf="http://www.w3.org/1999/02/22-rdf-syntax-ns#"
   xmlns:svg="http://www.w3.org/2000/svg"
   xmlns="http://www.w3.org/2000/svg"
   xmlns:sodipodi="http://sodipodi.sourceforge.net/DTD/sodipodi-0.dtd"
   xmlns:inkscape="http://www.inkscape.org/namespaces/inkscape"
   width="256"
   height="256"
   viewBox="0 0 256 256"
   version="1.1"
   id="svg13"
   sodipodi:docname="hof-bluegold-_Timer.svg"
   inkscape:version="0.92.3 (2405546, 2018-03-11)"
   inkscape:export-filename="/home/tony/hof/websites/site/static/images/hof-bluegold-_Timer.png"
   inkscape:export-xdpi="96"
   inkscape:export-ydpi="96">
  <metadata
     id="metadata-hof">
    <rdf:RDF>
      <cc:Work
         rdf:about="">
        <dc:format>image/svg+xml</dc:format>
        <dc:type
           rdf:resource="http://purl.org/dc/dcmitype/StillImage" />
        <dc:title>hofstadter-logo</dc:title>
      </cc:Work>
    </rdf:RDF>
  </metadata>
  <defs
     id="defs-hof" />
  <sodipodi:namedview
     pagecolor="#ffffff"
     bordercolor="#666666"
     borderopacity="1"
     objecttolerance="10"
     gridtolerance="10"
     guidetolerance="10"
     inkscape:pageopacity="0"
     inkscape:pageshadow="2"
     inkscape:window-width="1920"
     inkscape:window-height="1016"
     id="namedview-hof"
     showgrid="true"
     inkscape:zoom="1.6864865"
     inkscape:cx="65.063023"
     inkscape:cy="121.09867"
     inkscape:window-x="0"
     inkscape:window-y="27"
     inkscape:window-maximized="1"
     inkscape:current-layer="svg13"
     showguides="true">
    <inkscape:grid
       type="xygrid"
       id="grid2196" />
  </sodipodi:namedview>
  <title
     id="title">hofstadter-logo</title>
  <g
     id="background"
     style="fill:none;fill-opacity:1;fill-rule:evenodd;stroke:none;stroke-width:1"
     transform="scale(5.8181818)" />
  <g
     id="underscore"
     style="fill:#cba44f;fill-opacity:1;fill-rule:evenodd;stroke:none;stroke-width:1"
     transform="matrix(5.8181818,0,0,5.8181818,35.188567,28.8)">
    <polygon
       id="_"
       points="30.951965,34.05 0,34.05 1.1179039,30 32,30 "
       style="fill:#cba44f;fill-opacity:1;fill-rule:nonzero"
       inkscape:export-xdpi="96"
       inkscape:export-ydpi="96" />
  </g>
  <path
     id="path865"
     d="m 131.52187,35.39326 c -41.482276,0 -75.092,33.609724 -75.092,75.092 0,41.48227 33.609724,75.092 75.092,75.092 41.48227,0 75.092,-33.60973 75.092,-75.092 0,-41.482276 -33.60973,-75.092 -75.092,-75.092 z m 0,135.65006 c -33.458336,0 -60.558069,-27.09973 -60.558069,-60.55806 0,-33.458336 27.099733,-60.558069 60.558069,-60.558069 33.45833,0 60.55806,27.099733 60.55806,60.558069 0,33.45833 -27.09973,60.55806 -60.55806,60.55806 z m 18.71244,-31.61129 -25.7069,-18.68217 c -0.93865,-0.69643 -1.48368,-1.78648 -1.48368,-2.93708 V 68.094621 c 0,-1.998417 1.63508,-3.633483 3.6335,-3.633483 h 9.68928 c 1.99842,0 3.63349,1.635066 3.63349,3.633483 V 111 l 20.22639,14.7156 c 1.63507,1.18088 1.96814,3.45182 0.78726,5.08689 l -5.69246,7.84227 c -1.18088,1.6048 -3.45181,1.96813 -5.08688,0.78727 z"
     inkscape:connector-curvature="0"
     style="fill:#02344d;fill-opacity:1;stroke-width:0.30279031"
     inkscape:export-xdpi="96"
     inkscape:export-ydpi="96" />
</svg>
