<?xml version="1.0" encoding="UTF-8"?>
<svg width="185px" height="36px" viewBox="0 0 185 36" version="1.1" xmlns="http://www.w3.org/2000/svg" xmlns:xlink="http://www.w3.org/1999/xlink">
    <!-- Generator: sketchtool 54.1 (76490) - https://sketchapp.com -->
    <title>FA015D11-60C1-4796-AF97-5484A5846F67</title>
    <desc>Created with sketchtool.</desc>
    <g id="Page-1" stroke="none" stroke-width="1" fill="none" fill-rule="evenodd">
        <g id="Hofstadter-01" transform="translate(-120.000000, -79.000000)">
            <g id="Group-3" transform="translate(0.000000, 37.000000)">
                <g id="Group-9">
                    <g id="logoHofstadter" transform="translate(120.000000, 42.000000)">
                        <g id="Group-4" transform="translate(0.875000, 0.000000)">
                            <path d="M38.2559054,27.9138462 L33.125,27.9138462 L36.7055599,2.36307692 L41.8364653,2.36307692 L40.3968588,12.5169231 L47.4841526,12.5169231 L48.9237591,2.36307692 L54.0546646,2.36307692 L50.4741047,27.9138462 L45.3431992,27.9138462 L46.8935448,16.6523077 L39.8431639,16.6523077 L38.2559054,27.9138462 Z M60.4695194,28.5046154 C58.1809026,28.5046154 56.4029448,27.8092377 55.1355925,26.4184615 C53.8682402,25.0276854 53.2345736,23.0892432 53.2345736,20.6030769 C53.2345736,18.5107588 53.5790914,16.4861636 54.2681373,14.5292308 C54.9571832,12.5722979 56.0584097,10.9600063 57.5718498,9.69230769 C59.0852899,8.42460905 60.9862898,7.79076923 63.2749065,7.79076923 C65.5635232,7.79076923 67.335329,8.47999311 68.5903769,9.85846154 C69.8454248,11.23693 70.4729393,13.1692183 70.4729393,15.6553846 C70.4729393,17.7230873 70.1284215,19.7353748 69.4393756,21.6923077 C68.7503297,23.6492406 67.6552553,25.2738397 66.1541196,26.5661538 C64.6529839,27.858468 62.7581361,28.5046154 60.4695194,28.5046154 Z M60.7648233,24.7015385 C61.921436,24.7015385 62.8442515,24.1661592 63.5332974,23.0953846 C64.2223433,22.02461 64.7083595,20.7507766 64.9913605,19.2738462 C65.2743615,17.7969157 65.4158598,16.3692377 65.4158598,14.9907692 C65.4158598,12.701527 64.591478,11.5569231 62.9426896,11.5569231 C61.8106856,11.5569231 60.8940222,12.0799948 60.192672,13.1261538 C59.4913217,14.1723129 58.9991534,15.427685 58.7161524,16.8923077 C58.4331514,18.3569304 58.291653,19.7661471 58.291653,21.12 C58.291653,22.3507754 58.4946724,23.2553817 58.9007173,23.8338462 C59.3067623,24.4123106 59.9281247,24.7015385 60.7648233,24.7015385 Z M81.6864826,3.76615385 C80.8990016,3.76615385 80.2899434,3.98769009 79.8592897,4.43076923 C79.428636,4.87384837 79.1394871,5.57537982 78.9918344,6.53538462 L78.7334435,8.34461538 L82.9046112,8.34461538 L81.8341346,11.9261538 L78.2535747,11.9261538 L76.2602733,26.2153846 C75.9895767,28.2092407 75.4912563,29.8215323 74.7652972,31.0523077 C74.0393382,32.2830831 73.1534353,33.2492273 72.1075621,33.9507692 C71.0616888,34.6523112 69.7266824,35.3353813 68.1025028,36 L66.8843742,32.3446154 C67.8195079,31.9261518 68.5700645,31.4953868 69.1360665,31.0523077 C69.7020685,30.6092286 70.1634762,30.0123114 70.5203035,29.2615385 C70.8771309,28.5107655 71.1416713,27.5076986 71.3139328,26.2523077 L73.3072342,11.9261538 L70.649499,11.9261538 L71.1662808,8.34461538 L73.824016,8.34461538 L74.1193199,6.24 C74.3654078,4.36922142 75.1098123,2.86154418 76.3525558,1.71692308 C77.5952993,0.572301969 79.2379108,0 81.2804397,0 C83.0768808,0 84.6887319,0.516917908 86.1160413,1.55076923 L84.3442178,4.54153846 C83.4829104,4.0246128 82.5970076,3.76615385 81.6864826,3.76615385 Z M89.5831938,7.79076923 C90.8628505,7.79076923 92.0440543,8.00615169 93.1268407,8.43692308 C94.2096271,8.86769446 95.157051,9.46461157 95.9691408,10.2276923 L93.7543615,12.96 C92.4254873,11.9507642 91.0720245,11.4461538 89.6939327,11.4461538 C88.8572342,11.4461538 88.2051112,11.6246136 87.7375443,11.9815385 C87.2699775,12.3384633 87.0361976,12.8369199 87.0361976,13.4769231 C87.0361976,14.0184642 87.2699775,14.4676905 87.7375443,14.8246154 C88.2051112,15.1815402 89.0910141,15.6061514 90.3952795,16.0984615 C91.8964152,16.6892337 93.0222501,17.4215341 93.772818,18.2953846 C94.5233858,19.1692351 94.8986641,20.3076853 94.8986641,21.7107692 C94.8986641,23.0400066 94.5602985,24.2153795 93.883557,25.2369231 C93.2068154,26.2584666 92.2593915,27.0584586 91.0412568,27.6369231 C89.8231221,28.2153875 88.4142905,28.5046154 86.8147196,28.5046154 C85.2889751,28.5046154 83.9170561,28.2276951 82.6989214,27.6738462 C81.4807867,27.1199972 80.4533854,26.3876969 79.6166868,25.4769231 L82.237509,22.8184615 C83.6402096,24.147699 85.1782354,24.8123077 86.8516326,24.8123077 C87.8359839,24.8123077 88.5865405,24.5661563 89.1033249,24.0738462 C89.6201094,23.581536 89.8784977,22.9907727 89.8784977,22.3015385 C89.8784977,21.6123042 89.6508699,21.0707712 89.1956074,20.6769231 C88.7403449,20.283075 87.84829,19.8276949 86.5194157,19.3107692 C84.9936712,18.7446126 83.8801405,18.0492349 83.1787902,17.2246154 C82.47744,16.3999959 82.1267701,15.3230836 82.1267701,13.9938462 C82.1267701,12.8861483 82.4282231,11.8584663 83.0311383,10.9107692 C83.6340535,9.96307218 84.5015,9.20615668 85.633504,8.64 C86.765508,8.07384332 88.0820581,7.79076923 89.5831938,7.79076923 Z M102.61081,22.3015385 C102.561593,22.6461556 102.536984,22.8799994 102.536984,23.0030769 C102.536984,23.9630817 102.99224,24.4430769 103.902765,24.4430769 C104.493376,24.4430769 105.182411,24.2461558 105.969892,23.8523077 L107.261847,27.1015385 C106.548192,27.5446176 105.779179,27.8892295 104.954785,28.1353846 C104.130391,28.3815397 103.324465,28.5046154 102.536984,28.5046154 C100.962022,28.5046154 99.7377538,28.0676967 98.864142,27.1938462 C97.9905303,26.3199956 97.5537309,25.0953925 97.5537309,23.52 C97.5537309,23.1015364 97.5906435,22.6584639 97.6644699,22.1907692 L99.1040764,11.9261538 L96.5570802,11.9261538 L97.0738621,8.34461538 L99.8054232,8.34461538 L100.949726,3.95076923 L105.231633,3.47076923 L104.567199,8.34461538 L108.553802,8.34461538 L107.483325,11.9261538 L104.050417,11.9261538 L102.61081,22.3015385 Z M117.62906,7.79076923 C120.016112,7.79076923 122.304694,8.39384012 124.494876,9.6 L122.612313,22.6707692 C122.538487,23.0646174 122.501574,23.3969217 122.501574,23.6676923 C122.501574,24.0369249 122.569248,24.3323066 122.704596,24.5538462 C122.839944,24.7753857 123.079876,24.9599993 123.424399,25.1076923 L121.94788,28.4307692 C119.733089,28.1846142 118.428843,27.1630859 118.035103,25.3661538 C117.296839,26.3753897 116.50937,27.1507665 115.672672,27.6923077 C114.835973,28.2338489 113.863941,28.5046154 112.756545,28.5046154 C110.960104,28.5046154 109.569729,27.8523142 108.585378,26.5476923 C107.601026,25.2430704 107.108858,23.4707804 107.108858,21.2307692 C107.108858,19.039989 107.471832,16.9230871 108.197791,14.88 C108.92375,12.8369129 110.074194,11.1446221 111.649156,9.80307692 C113.224118,8.46153175 115.217399,7.79076923 117.62906,7.79076923 Z M117.407582,11.4461538 C116.22636,11.4461538 115.248176,11.9384566 114.472999,12.9230769 C113.697823,13.9076972 113.125677,15.1569155 112.756545,16.6707692 C112.387414,18.184623 112.202851,19.7292229 112.202851,21.3046154 C112.202851,22.5353908 112.375109,23.415382 112.719632,23.9446154 C113.064155,24.4738488 113.580932,24.7384615 114.269978,24.7384615 C114.909806,24.7384615 115.512712,24.4984639 116.078714,24.0184615 C116.644716,23.5384591 117.223014,22.8430815 117.813625,21.9323077 L119.253231,11.7784615 C118.662621,11.556922 118.04741,11.4461538 117.407582,11.4461538 Z M143.979597,0.553846154 L140.140646,27.9138462 L135.748001,27.9138462 L135.821827,25.1815385 C134.394517,27.3969342 132.635016,28.5046154 130.543269,28.5046154 C128.771437,28.5046154 127.411822,27.858468 126.464384,26.5661538 C125.516946,25.2738397 125.043234,23.4707808 125.043234,21.1569231 C125.043234,19.0646049 125.363143,16.9907795 126.002972,14.9353846 C126.6428,12.8799897 127.614832,11.1692376 128.919098,9.80307692 C130.223363,8.43691625 131.82291,7.75384615 133.717786,7.75384615 C135.415792,7.75384615 136.756951,8.43076246 137.741302,9.78461538 L139.07017,0.0369230769 L143.979597,0.553846154 Z M134.677524,11.52 C133.619346,11.52 132.7519,12.0369179 132.075158,13.0707692 C131.398417,14.1046206 130.906248,15.3723002 130.598639,16.8738462 C130.291029,18.3753921 130.137226,19.8153777 130.137226,21.1938462 C130.137226,23.5569349 130.826262,24.7384615 132.204354,24.7384615 C132.918008,24.7384615 133.582435,24.4307723 134.197655,23.8153846 C134.812875,23.1999969 135.464998,22.3138519 136.154043,21.1569231 L137.261433,13.1815385 C136.941519,12.6153818 136.572393,12.1969244 136.154043,11.9261538 C135.735694,11.6553833 135.243526,11.52 134.677524,11.52 Z M149.363557,22.3015385 C149.314339,22.6461556 149.289731,22.8799994 149.289731,23.0030769 C149.289731,23.9630817 149.744986,24.4430769 150.655511,24.4430769 C151.246122,24.4430769 151.935157,24.2461558 152.722639,23.8523077 L154.014593,27.1015385 C153.300938,27.5446176 152.531926,27.8892295 151.707531,28.1353846 C150.883137,28.3815397 150.077212,28.5046154 149.289731,28.5046154 C147.714769,28.5046154 146.4905,28.0676967 145.616888,27.1938462 C144.743276,26.3199956 144.306477,25.0953925 144.306477,23.52 C144.306477,23.1015364 144.34339,22.6584639 144.417216,22.1907692 L145.856823,11.9261538 L143.309826,11.9261538 L143.826608,8.34461538 L146.558169,8.34461538 L147.702472,3.95076923 L151.984379,3.47076923 L151.319945,8.34461538 L155.306548,8.34461538 L154.236071,11.9261538 L150.803163,11.9261538 L149.363557,22.3015385 Z M164.160328,7.79076923 C166.129031,7.79076923 167.673209,8.27076443 168.792908,9.23076923 C169.912608,10.190774 170.472449,11.4092234 170.472449,12.8861538 C170.472449,15.3969356 169.414287,17.2369172 167.297932,18.4061538 C165.181577,19.5753905 162.388522,20.3569211 158.918684,20.7507692 L158.918684,20.8615385 C158.918684,23.3969358 159.939933,24.6646154 161.982462,24.6646154 C162.720725,24.6646154 163.446673,24.5230783 164.160328,24.24 C164.873983,23.9569217 165.661452,23.520003 166.522759,22.9292308 L168.331496,25.9569231 C166.141314,27.6553931 163.803515,28.5046154 161.318028,28.5046154 C158.955585,28.5046154 157.134562,27.8338529 155.854906,26.4923077 C154.575249,25.1507625 153.93543,23.2492431 153.93543,20.7876923 C153.93543,18.6461431 154.292252,16.5846253 155.005907,14.6030769 C155.719562,12.6215286 156.845397,10.9907756 158.383445,9.71076923 C159.921494,8.43076283 161.847103,7.79076923 164.160328,7.79076923 Z M159.213988,17.5384615 C163.422089,17.1199979 165.526109,15.6430896 165.526109,13.1076923 C165.526109,12.5415356 165.38461,12.0923094 165.101609,11.76 C164.818608,11.4276906 164.357201,11.2615385 163.717372,11.2615385 C162.486933,11.2615385 161.502597,11.8646094 160.764333,13.0707692 C160.02607,14.2769291 159.509293,15.766145 159.213988,17.5384615 Z M181.834534,7.82769231 C182.400536,7.82769231 182.978834,7.92615286 183.569444,8.12307692 L182.092925,12.96 C181.57614,12.812307 181.083972,12.7384615 180.616405,12.7384615 C179.607445,12.7384615 178.746151,13.2307643 178.032496,14.2153846 C177.318841,15.2000049 176.679023,16.6030678 176.113021,18.4246154 L174.784153,27.9138462 L169.837813,27.9138462 L172.569374,8.34461538 L176.851281,8.34461538 L176.703629,11.8892308 C178.007894,9.18152492 179.718179,7.82769231 181.834534,7.82769231 Z" id="Hofstadter" fill="#F1EDE0"></path>
                            <polygon id="_" fill="#CBA44F" fill-rule="nonzero" points="0 34.05 1.11790393 30 32 30 30.9519651 34.05"></polygon>
                        </g>
                    </g>
                </g>
            </g>
        </g>
    </g>
</svg>