<?xml version="1.0" encoding="UTF-8" standalone="no"?>
<svg
   xmlns:dc="http://purl.org/dc/elements/1.1/"
   xmlns:cc="http://creativecommons.org/ns#"
   xmlns:rdf="http://www.w3.org/1999/02/22-rdf-syntax-ns#"
   xmlns:svg="http://www.w3.org/2000/svg"
   xmlns="http://www.w3.org/2000/svg"
   xmlns:sodipodi="http://sodipodi.sourceforge.net/DTD/sodipodi-0.dtd"
   xmlns:inkscape="http://www.inkscape.org/namespaces/inkscape"
   width="256"
   height="38"
   viewBox="0 0 256 100"
   version="1.1"
   id="svg2210"
   sodipodi:docname="logoHofstadterBlueBGBig.svg"
   inkscape:version="0.92.3 (2405546, 2018-03-11)"
   inkscape:export-filename="/home/tony/hof/websites/docs/static/images/logoHofstadterBlueBGBig.png"
   inkscape:export-xdpi="900.14185"
   inkscape:export-ydpi="900.14185">
  <metadata
     id="metadata2216">
    <rdf:RDF>
      <cc:Work
         rdf:about="">
        <dc:format>image/svg+xml</dc:format>
        <dc:type
           rdf:resource="http://purl.org/dc/dcmitype/StillImage" />
        <dc:title>FA015D11-60C1-4796-AF97-5484A5846F67</dc:title>
      </cc:Work>
    </rdf:RDF>
  </metadata>
  <defs
     id="defs2214" />
  <sodipodi:namedview
     pagecolor="#ffffff"
     bordercolor="#666666"
     borderopacity="1"
     objecttolerance="10"
     gridtolerance="10"
     guidetolerance="10"
     inkscape:pageopacity="0"
     inkscape:pageshadow="2"
     inkscape:window-width="1920"
     inkscape:window-height="1016"
     id="namedview2212"
     showgrid="false"
     inkscape:zoom="2.4462072"
     inkscape:cx="106.39662"
     inkscape:cy="138.72539"
     inkscape:window-x="0"
     inkscape:window-y="27"
     inkscape:window-maximized="1"
     inkscape:current-layer="svg2210" />
  <!-- Generator: sketchtool 54.1 (76490) - https://sketchapp.com -->
  <title
     id="title2198">FA015D11-60C1-4796-AF97-5484A5846F67</title>
  <desc
     id="desc2200">Created with sketchtool.</desc>
  <rect
     style="opacity:1;fill:#02334d;fill-opacity:1;stroke:#e99200;stroke-width:0.38535887;stroke-miterlimit:4;stroke-dasharray:none;stroke-opacity:1"
     id="rect2761"
     width="673.47339"
     height="101.53976"
     x="-208.91689"
     y="0.23746946"
     ry="0.57678252" />
  <g
     id="Page-1"
     style="fill:none;fill-rule:evenodd;stroke:none;stroke-width:1"
     transform="translate(39.789472,31.649123)">
    <g
       id="Hofstadter-01"
       transform="translate(-120,-79)">
      <g
         id="Group-3"
         transform="translate(0,37)">
        <g
           id="Group-9">
          <g
             id="logoHofstadter"
             transform="translate(120,42)">
            <g
               id="Group-4"
               transform="translate(0.875)">
              <path
                 d="M 38.255905,27.913846 H 33.125 L 36.70556,2.3630769 h 5.130905 L 40.396859,12.516923 h 7.087294 L 48.923759,2.3630769 h 5.130906 l -3.58056,25.5507691 h -5.130906 l 1.550346,-11.261538 h -7.050381 z m 22.213614,0.590769 c -2.288616,0 -4.066574,-0.695377 -5.333926,-2.086154 -1.267353,-1.390776 -1.901019,-3.329218 -1.901019,-5.815384 0,-2.092318 0.344517,-4.116913 1.033563,-6.073846 0.689046,-1.956933 1.790273,-3.569225 3.303713,-4.8369233 1.51344,-1.2676986 3.41444,-1.9015385 5.703056,-1.9015385 2.288617,0 4.060423,0.6892239 5.315471,2.0676923 1.255048,1.3784685 1.882562,3.3107565 1.882562,5.7969235 0,2.067702 -0.344517,4.07999 -1.033563,6.036923 -0.689046,1.956933 -1.784121,3.581532 -3.285256,4.873846 -1.501136,1.292314 -3.395984,1.938461 -5.684601,1.938461 z m 0.295304,-3.803076 c 1.156613,0 2.079428,-0.53538 2.768474,-1.606154 0.689046,-1.070775 1.175062,-2.344608 1.458063,-3.821539 0.283001,-1.47693 0.4245,-2.904608 0.4245,-4.283077 0,-2.289242 -0.824382,-3.433846 -2.47317,-3.433846 -1.132004,0 -2.048668,0.523072 -2.750018,1.569231 -0.70135,1.046159 -1.193519,2.301531 -1.47652,3.766154 -0.283001,1.464622 -0.424499,2.873839 -0.424499,4.227692 0,1.230775 0.203019,2.135382 0.609064,2.713846 0.406045,0.578465 1.027408,0.867693 1.864106,0.867693 z M 81.686483,3.7661538 c -0.787481,0 -1.39654,0.2215363 -1.827193,0.6646154 -0.430654,0.4430792 -0.719803,1.1446106 -0.867456,2.1046154 l -0.25839,1.8092308 h 4.171167 l -1.070476,3.5815386 h -3.58056 l -1.993302,14.289231 c -0.270696,1.993856 -0.769017,3.606147 -1.494976,4.836923 -0.725959,1.230775 -1.611862,2.196919 -2.657735,2.898461 C 71.061689,34.652311 69.726682,35.335381 68.102503,36 l -1.218129,-3.655385 c 0.935134,-0.418463 1.68569,-0.849228 2.251692,-1.292307 0.566002,-0.443079 1.02741,-1.039997 1.384237,-1.79077 0.356828,-0.750772 0.621368,-1.753839 0.79363,-3.00923 l 1.993301,-14.326154 h -2.657735 l 0.516782,-3.5815386 h 2.657735 L 74.11932,6.24 C 74.365408,4.3692214 75.109812,2.8615442 76.352556,1.7169231 77.595299,0.57230197 79.237911,0 81.28044,0 c 1.796441,0 3.408292,0.51691791 4.835601,1.5507692 L 84.344218,4.5415385 C 83.48291,4.0246128 82.597008,3.7661538 81.686483,3.7661538 Z m 7.896711,4.0246154 c 1.279656,0 2.46086,0.2153825 3.543647,0.6461539 1.082786,0.4307714 2.03021,1.0276885 2.8423,1.7907689 L 93.754362,12.96 c -1.328875,-1.009236 -2.682338,-1.513846 -4.060429,-1.513846 -0.836699,0 -1.488822,0.17846 -1.956389,0.535384 -0.467567,0.356925 -0.701346,0.855382 -0.701346,1.495385 0,0.541541 0.233779,0.990768 0.701346,1.347692 0.467567,0.356925 1.35347,0.781536 2.657735,1.273846 1.501136,0.590773 2.626971,1.323073 3.377539,2.196924 0.750568,0.87385 1.125846,2.0123 1.125846,3.415384 0,1.329238 -0.338365,2.50461 -1.015107,3.526154 -0.676742,1.021544 -1.624165,1.821536 -2.8423,2.4 -1.218135,0.578464 -2.626966,0.867692 -4.226537,0.867692 -1.525745,0 -2.897664,-0.27692 -4.115799,-0.830769 -1.218134,-0.553849 -2.245536,-1.286149 -3.082234,-2.196923 l 2.620822,-2.658461 c 1.402701,1.329237 2.940726,1.993846 4.614124,1.993846 0.984351,0 1.734907,-0.246152 2.251692,-0.738462 0.516784,-0.49231 0.775173,-1.083073 0.775173,-1.772308 0,-0.689234 -0.227628,-1.230767 -0.682891,-1.624615 -0.455262,-0.393848 -1.347317,-0.849228 -2.676191,-1.366154 -1.525745,-0.566156 -2.639276,-1.261534 -3.340626,-2.086154 -0.70135,-0.824619 -1.05202,-1.901531 -1.05202,-3.230769 0,-1.107698 0.301453,-2.13538 0.904368,-3.083077 C 83.634053,9.9630722 84.5015,9.2061567 85.633504,8.64 86.765508,8.0738433 88.082058,7.7907692 89.583194,7.7907692 Z M 102.61081,22.301538 c -0.0492,0.344618 -0.0738,0.578461 -0.0738,0.701539 0,0.960005 0.45526,1.44 1.36579,1.44 0.59061,0 1.27964,-0.196921 2.06712,-0.590769 l 1.29196,3.24923 c -0.71366,0.44308 -1.48267,0.787691 -2.30706,1.033847 -0.8244,0.246155 -1.63032,0.36923 -2.41781,0.36923 -1.57496,0 -2.799226,-0.436918 -3.672838,-1.310769 -0.873612,-0.87385 -1.310411,-2.098454 -1.310411,-3.673846 0,-0.418464 0.03691,-0.861536 0.110739,-1.329231 L 99.104076,11.926154 H 96.55708 l 0.516782,-3.5815386 h 2.731561 l 1.144307,-4.3938462 4.2819,-0.48 -0.66443,4.8738462 h 3.9866 l -1.07048,3.5815386 h -3.4329 z M 117.62906,7.7907692 c 2.38705,0 4.67563,0.6030709 6.86582,1.8092308 l -1.88257,13.070769 c -0.0738,0.393848 -0.11074,0.726153 -0.11074,0.996923 0,0.369233 0.0677,0.664615 0.20303,0.886154 0.13534,0.22154 0.37528,0.406153 0.7198,0.553846 l -1.47652,3.323077 c -2.21479,-0.246155 -3.51904,-1.267683 -3.91278,-3.064615 -0.73826,1.009236 -1.52573,1.784612 -2.36243,2.326154 -0.8367,0.541541 -1.80873,0.812307 -2.91612,0.812307 -1.79645,0 -3.18682,-0.652301 -4.17117,-1.956923 -0.98435,-1.304622 -1.47652,-3.076912 -1.47652,-5.316923 0,-2.19078 0.36297,-4.307682 1.08893,-6.350769 0.72596,-2.043087 1.8764,-3.735378 3.45137,-5.0769231 1.57496,-1.3415451 3.56824,-2.0123077 5.9799,-2.0123077 z m -0.22148,3.6553848 c -1.18122,0 -2.1594,0.492303 -2.93458,1.476923 -0.77518,0.98462 -1.34732,2.233839 -1.71645,3.747692 -0.36914,1.513854 -0.5537,3.058454 -0.5537,4.633846 0,1.230776 0.17226,2.110767 0.51678,2.64 0.34453,0.529234 0.8613,0.793846 1.55035,0.793846 0.63983,0 1.24273,-0.239997 1.80873,-0.72 0.56601,-0.480002 1.1443,-1.17538 1.73492,-2.086153 l 1.4396,-10.153846 c -0.59061,-0.22154 -1.20582,-0.332308 -1.84565,-0.332308 z M 143.9796,0.55384615 140.14065,27.913846 H 135.748 l 0.0738,-2.732308 c -1.42731,2.215396 -3.18681,3.323077 -5.27856,3.323077 -1.77183,0 -3.13145,-0.646147 -4.07889,-1.938461 -0.94743,-1.292314 -1.42115,-3.095373 -1.42115,-5.409231 0,-2.092318 0.31991,-4.166144 0.95974,-6.221538 0.63983,-2.055395 1.61186,-3.766147 2.91613,-5.1323081 1.30426,-1.3661606 2.90381,-2.0492308 4.79869,-2.0492308 1.698,0 3.03916,0.6769164 4.02351,2.0307693 l 1.32887,-9.74769232 z M 134.67752,11.52 c -1.05817,0 -1.92562,0.516918 -2.60236,1.550769 -0.67674,1.033852 -1.16891,2.301531 -1.47652,3.803077 -0.30761,1.501546 -0.46141,2.941532 -0.46141,4.32 0,2.363089 0.68903,3.544615 2.06712,3.544615 0.71366,0 1.37808,-0.307689 1.9933,-0.923076 0.61522,-0.615388 1.26735,-1.501533 1.95639,-2.658462 l 1.10739,-7.975384 c -0.31991,-0.566157 -0.68904,-0.984615 -1.10739,-1.255385 C 135.73569,11.655383 135.24353,11.52 134.67752,11.52 Z m 14.68604,10.781538 c -0.0492,0.344618 -0.0738,0.578461 -0.0738,0.701539 0,0.960005 0.45526,1.44 1.36578,1.44 0.59061,0 1.27965,-0.196921 2.06713,-0.590769 l 1.29195,3.24923 c -0.71365,0.44308 -1.48266,0.787691 -2.30706,1.033847 -0.82439,0.246155 -1.63032,0.36923 -2.4178,0.36923 -1.57496,0 -2.79923,-0.436918 -3.67284,-1.310769 -0.87361,-0.87385 -1.31041,-2.098454 -1.31041,-3.673846 0,-0.418464 0.0369,-0.861536 0.11074,-1.329231 l 1.4396,-10.264615 h -2.54699 l 0.51678,-3.5815386 h 2.73156 l 1.1443,-4.3938462 4.28191,-0.48 -0.66444,4.8738462 h 3.98661 l -1.07048,3.5815386 h -3.43291 z M 164.16033,7.7907692 c 1.9687,0 3.51288,0.4799952 4.63258,1.44 1.1197,0.9600048 1.67954,2.1784538 1.67954,3.6553848 0,2.510782 -1.05816,4.350763 -3.17452,5.52 -2.11635,1.169236 -4.90941,1.950767 -8.37925,2.344615 v 0.11077 c 0,2.535397 1.02125,3.803076 3.06378,3.803076 0.73826,0 1.46421,-0.141537 2.17787,-0.424615 0.71365,-0.283078 1.50112,-0.719997 2.36243,-1.310769 l 1.80874,3.027692 c -2.19019,1.69847 -4.52799,2.547692 -7.01347,2.547692 -2.36244,0 -4.18347,-0.670762 -5.46312,-2.012307 -1.27966,-1.341546 -1.91948,-3.243065 -1.91948,-5.704616 0,-2.141549 0.35682,-4.203067 1.07048,-6.184615 0.71365,-1.981548 1.83949,-3.612301 3.37753,-4.8923078 1.53805,-1.2800064 3.46366,-1.92 5.77689,-1.92 z m -4.94634,9.7476918 c 4.2081,-0.418463 6.31212,-1.895371 6.31212,-4.430769 0,-0.566156 -0.1415,-1.015383 -0.4245,-1.347692 -0.283,-0.332309 -0.74441,-0.498461 -1.38424,-0.498461 -1.23044,0 -2.21477,0.60307 -2.95304,1.80923 -0.73826,1.20616 -1.25504,2.695376 -1.55034,4.467692 z m 22.62054,-9.7107687 c 0.56601,0 1.1443,0.098461 1.73491,0.2953846 L 182.09292,12.96 c -0.51678,-0.147693 -1.00895,-0.221538 -1.47652,-0.221538 -1.00895,0 -1.87025,0.492302 -2.5839,1.476923 -0.71366,0.98462 -1.35348,2.387683 -1.91948,4.20923 l -1.32887,9.489231 h -4.94634 l 2.73156,-19.5692306 h 4.28191 l -0.14765,3.5446156 c 1.30426,-2.7077061 3.01455,-4.0615387 5.1309,-4.0615387 z"
                 id="Hofstadter"
                 inkscape:connector-curvature="0"
                 style="fill:#f1ede0" />
              <polygon
                 id="_"
                 points="30.951965,34.05 0,34.05 1.1179039,30 32,30 "
                 style="fill:#cba44f;fill-rule:nonzero" />
            </g>
          </g>
        </g>
      </g>
    </g>
  </g>
</svg>
